<svg width="38" height="38" viewBox="0 0 38 38" fill="none" xmlns="http://www.w3.org/2000/svg">
<g id="physics" filter="url(#filter0_d_3_317)">
<path id="Combo shape" fill-rule="evenodd" clip-rule="evenodd" d="M9.37076 5.37076C9.70131 5.04021 10.247 4.82406 11.1012 4.84789C11.958 4.8718 13.0353 5.13893 14.2741 5.66983C15.2633 6.09377 16.3267 6.67353 17.4245 7.39444C16.3511 8.23942 15.2783 9.19077 14.2346 10.2345C13.1908 11.2783 12.2394 12.3511 11.3944 13.4245C10.6735 12.3267 10.0938 11.2633 9.66982 10.2741C9.13893 9.03536 8.8718 7.958 8.84789 7.10118C8.82406 6.24704 9.04021 5.70131 9.37076 5.37076ZM15.0013 3.97294C16.2711 4.51713 17.6244 5.27951 19 6.23011C20.3757 5.27951 21.7289 4.51714 22.9987 3.97295C24.3649 3.38745 25.6795 3.03505 26.8473 3.00247C28.0179 2.9698 29.1295 3.26018 29.9347 4.06534C30.7398 4.87051 31.0302 5.98215 30.9975 7.15269C30.965 8.32055 30.6126 9.63518 30.0271 11.0014C29.4829 12.2711 28.7205 13.6244 27.7699 15.0001C28.7205 16.3757 29.4828 17.7289 30.027 18.9986C30.6125 20.3648 30.9649 21.6794 30.9974 22.8473C31.0301 24.0179 30.7397 25.1295 29.9346 25.9347C29.1294 26.7398 28.0178 27.0302 26.8472 26.9975C25.6794 26.9649 24.3647 26.6126 22.9986 26.027C21.7289 25.4829 20.3756 24.7205 19 23.77C17.6244 24.7205 16.2712 25.4829 15.0014 26.0271C13.6353 26.6126 12.3206 26.965 11.1528 26.9975C9.98224 27.0302 8.8706 26.7398 8.06544 25.9347C7.26028 25.1295 6.9699 24.0179 7.00256 22.8473C7.03515 21.6795 7.38754 20.3648 7.97305 18.9987C8.51721 17.7289 9.27956 16.3757 10.2301 15.0001C9.2795 13.6244 8.51712 12.2711 7.97294 11.0014C7.38743 9.63517 7.03504 8.32054 7.00245 7.15268C6.96979 5.98214 7.26017 4.87049 8.06533 4.06533C8.87048 3.26017 9.98213 2.96979 11.1527 3.00245C12.3205 3.03504 13.6351 3.38743 15.0013 3.97294ZM15.54 11.5399C16.681 10.399 17.8487 9.38365 19 8.50982C20.1513 9.38365 21.319 10.399 22.46 11.5399C23.601 12.6809 24.6164 13.8487 25.4902 15.0001C24.6164 16.1514 23.6011 17.3191 22.4601 18.4601C21.3191 19.6011 20.1514 20.6164 19 21.4903C17.8486 20.6164 16.6809 19.6011 15.5399 18.4601C14.399 17.3191 13.3836 16.1514 12.5098 15.0001C13.3837 13.8487 14.399 12.6809 15.54 11.5399ZM23.7654 10.2345C24.8092 11.2783 25.7606 12.3511 26.6056 13.4245C27.3265 12.3267 27.9062 11.2633 28.3302 10.2741C28.8611 9.03538 29.1282 7.95802 29.1521 7.1012C29.1759 6.24706 28.9598 5.70132 28.6292 5.37077C28.2987 5.04022 27.753 4.82407 26.8988 4.84791C26.042 4.87181 24.9647 5.13895 23.7259 5.66984C22.7367 6.09378 21.6733 6.67354 20.5756 7.39444C21.6489 8.23942 22.7217 9.19076 23.7654 10.2345ZM23.7655 19.7655C24.8093 18.7218 25.7606 17.649 26.6056 16.5756C27.3264 17.6734 27.9061 18.7367 28.3301 19.7259C28.861 20.9646 29.1281 22.042 29.152 22.8988C29.1758 23.7529 28.9597 24.2987 28.6291 24.6292C28.2986 24.9598 27.7529 25.1759 26.8987 25.1521C26.0419 25.1282 24.9646 24.8611 23.7258 24.3302C22.7366 23.9062 21.6733 23.3265 20.5756 22.6056C21.6489 21.7606 22.7218 20.8093 23.7655 19.7655ZM14.2345 19.7655C15.2782 20.8093 16.3511 21.7606 17.4245 22.6056C16.3267 23.3265 15.2634 23.9062 14.2742 24.3302C13.0354 24.8611 11.9581 25.1282 11.1013 25.1521C10.2471 25.1759 9.70142 24.9598 9.37087 24.6292C9.04032 24.2987 8.82417 23.753 8.848 22.8988C8.87191 22.042 9.13904 20.9646 9.66994 19.7259C10.0939 18.7367 10.6736 17.6734 11.3944 16.5756C12.2394 17.649 13.1907 18.7218 14.2345 19.7655ZM19 17.4617C20.3595 17.4617 21.4615 16.3596 21.4615 15.0002C21.4615 13.6407 20.3595 12.5386 19 12.5386C17.6405 12.5386 16.5385 13.6407 16.5385 15.0002C16.5385 16.3596 17.6405 17.4617 19 17.4617Z" fill="white"/>
</g>
<defs>
<filter id="filter0_d_3_317" x="0" y="0" width="38" height="38" filterUnits="userSpaceOnUse" color-interpolation-filters="sRGB">
<feFlood flood-opacity="0" result="BackgroundImageFix"/>
<feColorMatrix in="SourceAlpha" type="matrix" values="0 0 0 0 0 0 0 0 0 0 0 0 0 0 0 0 0 0 127 0" result="hardAlpha"/>
<feOffset dy="4"/>
<feGaussianBlur stdDeviation="3.5"/>
<feComposite in2="hardAlpha" operator="out"/>
<feColorMatrix type="matrix" values="0 0 0 0 0.388451 0 0 0 0 0.459239 0 0 0 0 0.484722 0 0 0 0.8 0"/>
<feBlend mode="normal" in2="BackgroundImageFix" result="effect1_dropShadow_3_317"/>
<feBlend mode="normal" in="SourceGraphic" in2="effect1_dropShadow_3_317" result="shape"/>
</filter>
</defs>
</svg>
