<svg width="125" height="29" viewBox="0 0 125 29" fill="none" xmlns="http://www.w3.org/2000/svg">
<g id="OBJECTS" clip-path="url(#clip0_3_277)">
<path id="Vector" d="M0.75708 26.9588C0.75708 26.9588 2.75661 28.9543 9.41526 25.8502C16.0739 22.7461 12.7478 28.2239 15.8862 27.5914C19.0247 26.9588 19.2123 23.8156 22.0466 24.885C24.8809 25.9545 24.5444 28.5109 26.874 25.2959C29.2035 22.0809 29.3718 0.762939 29.3718 0.762939L31.0413 26.1958C31.0413 26.1958 37.5123 29.2999 42.3655 21.3114C47.2187 13.3229 50.8554 19.8702 51.1919 23.196C51.5284 26.5219 56.3687 29.0652 59.0153 25.4198C59.0153 25.4198 60.8531 23.6395 63.0144 27.1936C65.1757 30.7477 67.68 24.1938 67.68 24.1938C67.68 24.1938 70.8443 22.8895 72.0091 27.3044L76.3382 0.77598L78.836 26.9718C80.5509 27.3685 82.348 27.1803 83.9454 26.4367C85.5428 25.6932 86.8501 24.4364 87.6624 22.8635C90.8267 17.203 95.4923 15.3184 99.1549 23.8612C99.1549 23.8612 102.474 30.7216 110.02 24.8394C110.02 24.8394 114.705 21.3962 117.571 25.7263H124.211" stroke="url(#paint0_linear_3_277)" stroke-width="2.34" stroke-linecap="round" stroke-linejoin="round"/>
</g>
<defs>
<linearGradient id="paint0_linear_3_277" x1="-2.50705e-05" y1="14.4967" x2="124.994" y2="14.4967" gradientUnits="userSpaceOnUse">
<stop stop-color="#171E27"/>
<stop offset="1" stop-color="#A9C2CB"/>
</linearGradient>
<clipPath id="clip0_3_277">
<rect width="125" height="29" fill="white"/>
</clipPath>
</defs>
</svg>
